# xmcd CD database file
#
# Track frame offsets:
#	150
#	6531
#	17568
#	27635
#	32143
#	37795
#	53012
#	63494
#	74229
#	81989
#	102370
#	116457
#
# Disc length: 1740 seconds
#
# Revision: 1
# Processed by: cddbd v1.5.2PL0 Copyright (c) Steve Scherf et al.
# Submitted via: CDex 1.51
#
DISCID=a206ca0c
DTITLE=Tammy Wynette - Singing My Song
DYEAR=2005
DGENRE=Country
TTITLE0=Welcome To My World
TTITLE1=D.I.V.O.R.C.E.
TTITLE2=Another Chance
TTITLE3=Your Good Girl's Gonna Go Bad
TTITLE4=Singing My Song
TTITLE5='Til I Can Make It On My Own
TTITLE6=Womanhood
TTITLE7=I Still Believe In Fairy Tales
TTITLE8=When The Grass Grows Over Me
TTITLE9=Medley: a. Amazing Grace  - b. I'll Fly Away  - c. Will The Circle Be Unbroken  - d. I Saw The Light
TTITLE10=Cryin' In The Rain
TTITLE11=Stand By Your Man
EXTD=CDDBSort:wynette_tammy,singing_my_song - YEAR: 2005
EXTT0=
EXTT1=
EXTT2=
EXTT3=
EXTT4=
EXTT5=
EXTT6=
EXTT7=
EXTT8=
EXTT9=
EXTT10=
EXTT11=
PLAYORDER=
